<?xml version="1.0" encoding="utf-8"?>
<!-- Generator: Adobe Illustrator 25.4.1, SVG Export Plug-In . SVG Version: 6.00 Build 0)  -->
<svg version="1.1" id="Layer_1" xmlns="http://www.w3.org/2000/svg" xmlns:xlink="http://www.w3.org/1999/xlink" x="0px" y="0px"
	 viewBox="0 0 198 294" style="enable-background:new 0 0 198 294;" xml:space="preserve">
<style type="text/css">
	.st0{fill:#8000DB;}
	.st1{fill:#008298;}
	.st2{fill:#580098;}
	.st3{fill:#98005E;}
	.st4{fill:#FF009E;}
	.st5{fill:#00BEDD;}
	.st6{fill:#FF9900;}
	.st7{fill:#FFE001;}
	.st8{fill:#FFFFFF;}
</style>
<path class="st0" d="M39.5,151c-1.1-6.1-2.3-11.9-5.3-16.7c-4-6.4-11.2-10.8-25.2-10.9l-0.2,8c5-0.2,9.8,0.3,13.9,2.9
	c3.5,2.2,6.4,5.8,8.6,11.8c-12.2-4.2-19.2-2.9-24.1,0.3c-2.6,1.7-4.6,3.8-6.5,6.1l5.5,5.1c0.3-0.5,0.7-0.9,1-1.3
	c6-7.1,12.9-6.9,20.2-3c-15.9,7.6-18.4,21-17.6,30.7c0.7,0.1,7.8,0,7.8,0c-0.7-9.4,6-22,20-25.8l2.1-4.3L39.5,151z"/>
<path class="st1" d="M143.8,68.1c23.5-32.6,35.1-48.7,25.8-56.6c-6.1-5.2-14.4-1.5-27.8,8.5c-0.5,10.7-3.1,25.9-6.5,46.1L143.8,68.1
	z"/>
<path class="st2" d="M158.6,263.4H150c-0.2,12.3,0.1,25-13,29c0.4,0.1,0.9,0.1,1.4,0.2c1.4,0.2,2.8,0.1,4.1-0.3
	C158.8,288.2,158.4,275.6,158.6,263.4z"/>
<path class="st3" d="M167.9,263.4l-9.1-21.5h8.5l-7.1-20.3h-11.8l5.5,20.3h-6.5l7,21.5h4.2H167.9z"/>
<path class="st0" d="M136.9,292.5c13.1-4,12.8-16.7,13-29h-31.2C118.6,281.8,125.2,290.7,136.9,292.5z"/>
<path class="st4" d="M147.4,241.9h6.5l-5.5-20.3l-31.7-0.2l-7.4,21.1l8,0.6l-8,20.2h45.1L147.4,241.9z"/>
<path class="st3" d="M81.5,242.7l-8.4-21.4l-11.8-0.1l5.8,20.9h-6.7l7.2,21.7l14.9,0.2l-10.4-21.5L81.5,242.7z"/>
<path class="st4" d="M60.5,242.2h6.7l-5.8-20.9l-32.2-0.2l-7.8,21.7l8.2,0.6l-8.2,20.3l46.3,0.1L60.5,242.2z"/>
<path class="st5" d="M134,0.9C121.3-2.2,114,18,95.6,57.4l39.6,8.8c3.4-20.2,6-35.4,6.5-46.1C142.2,8.6,140.2,2.4,134,0.9z"/>
<path class="st6" d="M158.2,200.8l10.4,0.7l-11.1-22.2h9.2l-8.2-20.2h-7.1h-6.1l7.5,20.2h-8.2l10,22.2l-9.4-0.7l10,20.8l14.3,0.1
	L158.2,200.8z"/>
<path class="st1" d="M168.6,138.3l-7.7-21.5h-14.8l6.3,21.5h-9.2l8,20.9h16l-9.8-20.9H168.6z"/>
<path class="st7" d="M95.6,57.4C95.6,57.5,95.6,57.4,95.6,57.4L78,92.4l9.7,0.2l-11.7,24.1h84.7l-11-4.6c-1.6-0.7-2.7-2-2.2-2.9
	c0.1-0.1,0.1-0.2,0.2-0.2c0.5-0.7,2-0.9,3.5-0.2l0.5,0.2l7.7,3.2l6.7,2.8v-42L95.6,57.4z"/>
<path class="st8" d="M138.3,97.4c5.3,0,9.7-4.3,9.7-9.7c0-5.3-4.3-9.7-9.7-9.7c-5.3,0-9.7,4.3-9.7,9.7S133,97.4,138.3,97.4z
	 M138.3,82.8c2.7,0,4.8,2.2,4.8,4.8s-2.2,4.8-4.8,4.8c-2.7,0-4.8-2.2-4.8-4.8S135.6,82.8,138.3,82.8z"/>
<path d="M138.6,92.5c2.7-0.2,4.7-2.5,4.5-5.1c-0.2-2.7-2.5-4.7-5.1-4.5c-2.7,0.2-4.7,2.5-4.5,5.1C133.6,90.6,135.9,92.7,138.6,92.5z
	"/>
<path d="M166,116.7V115l-14.3-6.1l-0.5-0.2c-1.5-0.6-3-0.5-3.5,0.2c-0.1,0.1-0.1,0.2-0.2,0.2c-0.4,0.9,0.6,2.2,2.2,2.9l11,4.6h0.2
	L166,116.7z"/>
<path class="st5" d="M143.3,138.3h9.1l-6.3-21.5H86.4l-9,21.5h9.1l-8.6,20.8H78v0.1c0.2,0,0.4,0,0.6,0h66.5h6.2L143.3,138.3z"/>
<path class="st7" d="M77.8,159.1l-38.2-5.2l-11.7,23.8h7.7c-0.7,1-1.5,2.1-2.3,3.2L44.1,191L58,177.8l13.6,13.5l13.9-13.2l13.9,13.2
	l13.6-13.5l0.4,0.4l13.5,12.7l13.9-13.2l5.3,5.3l-1.6-3.7h8.2l-7.4-20.2h-32H78h-0.1"/>
<path class="st7" d="M145,200.8l9.4,0.6l-1.9-4.2l-11.8-11.7l-13.9,13.9l-13.9-13.9l-13.9,14l-13.6-13.6l-13.9,13.2L58,185.6
	l-13.9,13.9l-13.9-13.8c-0.9,1.5-6.3,11-8.2,14.5l10.6,0.6l-9.4,20.2l131.8,0.6L145,200.8z"/>
<path d="M146.1,183l-5.3-5.3L126.8,191l-13.9-13.2l-13.6,13.5l-13.9-13.2l-13.9,13.2l-13.6-13.5L43.9,191l-10.7-10.1
	c-1,1.5-2.1,3.1-3.1,4.8L44,199.5l13.9-13.9l13.5,13.4l13.9-13.2l13.6,13.6l13.9-13.9l13.9,13.9l13.9-13.9l11.8,11.7L146.1,183z"/>
<path class="st2" d="M63.3,263.9c-0.2,12.4,0.2,25.1-13,29.2c0.8,0.1,1.6,0.2,2.4,0.3c0.7,0.1,1.4,0,2.1-0.2
	c0.6-0.2,1.2-0.3,1.8-0.5c0.9-0.3,1.7-0.5,2.4-0.8c0.5-0.2,1-0.4,1.5-0.6c0.3-0.2,0.6-0.3,0.9-0.5c0.3-0.2,0.6-0.3,0.9-0.5
	c0.4-0.3,0.9-0.5,1.2-0.8c0.3-0.2,0.5-0.4,0.7-0.5c0.5-0.4,1.1-0.9,1.5-1.3c0.5-0.5,1-1,1.4-1.5c0.2-0.2,0.3-0.4,0.5-0.6
	c0.2-0.3,0.4-0.5,0.5-0.8c0.3-0.5,0.6-1.1,0.9-1.6c0.2-0.3,0.3-0.6,0.4-0.9c0.1-0.2,0.2-0.3,0.2-0.5c0.1-0.2,0.2-0.5,0.3-0.7
	c0.1-0.1,0.1-0.2,0.1-0.4c0.2-0.5,0.3-1,0.4-1.4c0-0.1,0.1-0.2,0.1-0.3c0.1-0.3,0.2-0.6,0.2-1c0-0.1,0.1-0.2,0.1-0.2
	c0.1-0.4,0.2-0.7,0.2-1.1c0.1-0.2,0.1-0.4,0.1-0.6c0.1-0.2,0.1-0.5,0.1-0.7c0.2-1.1,0.3-2.1,0.3-3.2c0.1-1.3,0.2-2.7,0.2-4
	c0.1-1.4,0.1-2.9,0.1-4.3L63.3,263.9z"/>
<path class="st0" d="M32.1,263.8c-0.1,3.6,0.2,6.8,0.6,9.7c0.2,1.1,0.4,2.2,0.6,3.2c0.2,0.7,0.4,1.3,0.5,2
	c2.7,8.6,8.3,13.2,16.3,14.4c13.2-4.1,12.8-16.8,13-29.2H32.1z"/>
<path class="st3" d="M197.5,95.4c-3.2,8-13.7,14.5-31.6,16.1v3.5v1.7c1.2-0.1,2.3-0.2,3.5-0.2c1.4-0.1,2.7-0.3,4-0.5
	c1.2-0.2,2.3-0.4,3.4-0.6c4.8-1,8.8-2.5,12-4.4c0.7-0.4,1.4-0.9,2-1.3c0.3-0.2,0.6-0.4,0.9-0.7c0.9-0.7,1.6-1.4,2.3-2.2
	c0.5-0.5,0.9-1,1.2-1.5c0.9-1.3,1.6-2.7,2-4.1C197.8,99.4,197.9,97.5,197.5,95.4z"/>
<path class="st4" d="M169.8,74c-1.2-0.3-2.5-0.7-3.8-1V84v10.9v16.7c17.9-1.6,28.4-8.1,31.6-16.1C196,87.3,186.7,78.8,169.8,74z"/>
<path class="st0" d="M371.5,151.1c-1.1-6.1-2.3-11.9-5.3-16.7c-4-6.4-11.2-10.8-25.2-10.9l-0.2,8c5-0.2,9.8,0.3,13.9,2.9
	c3.5,2.2,6.4,5.8,8.6,11.8c-12.2-4.2-19.2-2.9-24.1,0.3c-2.6,1.7-4.6,3.8-6.5,6.1l5.5,5.1c0.3-0.5,0.7-0.9,1-1.3
	c6-7.1,12.9-6.9,20.2-3c-15.9,7.6-18.4,21-17.6,30.7c0.7,0.1,7.8,0,7.8,0c-0.7-9.4,6-22,20-25.8l2.1-4.3L371.5,151.1z"/>
<path class="st2" d="M490.6,263.5H482c-0.2,12.3,0.1,25-13,29c0.4,0.1,0.9,0.1,1.4,0.2c1.4,0.2,2.8,0.1,4.1-0.3
	C490.8,288.2,490.4,275.7,490.6,263.5z"/>
<path class="st3" d="M499.9,263.5l-9.1-21.5h8.5l-7.1-20.3h-11.8l5.5,20.3h-6.5l7,21.5h4.2H499.9z"/>
<path class="st0" d="M468.9,292.5c13.1-4,12.8-16.7,13-29h-31.2C450.6,281.8,457.2,290.7,468.9,292.5z"/>
<path class="st4" d="M479.4,242h6.5l-5.5-20.3l-31.7-0.2l-7.4,21.1l8,0.6l-8,20.2h45.1L479.4,242z"/>
<path class="st3" d="M413.5,242.7l-8.4-21.4l-11.8-0.1l5.8,20.9h-6.7l7.2,21.7l14.9,0.2l-10.4-21.5L413.5,242.7z"/>
<path class="st6" d="M490.2,200.8l10.4,0.7l-11.1-22.2h9.2l-8.2-20.2h-7.1h-6.1l7.5,20.2h-8.2l10,22.2l-9.4-0.7l10,20.8l14.3,0.1
	L490.2,200.8z"/>
<path class="st7" d="M409.8,159.1l-38.2-5.2l-11.7,23.8h7.7c-0.7,1-1.5,2.1-2.3,3.2l10.7,10.1l13.9-13.2l13.6,13.5l13.9-13.2
	l13.9,13.2l13.6-13.5l0.4,0.4l13.5,12.7l13.9-13.2l5.3,5.3l-1.6-3.7h8.2l-7.4-20.2h-9.9l-16.9-17.2L439.2,159H410h-0.1"/>
<path class="st7" d="M477,200.8l9.4,0.6l-1.9-4.2l-11.8-11.7l-13.9,13.9l-13.9-13.9l-13.9,14l-13.6-13.6l-13.9,13.2L390,185.7
	l-13.9,13.9l-13.9-13.8c-0.9,1.5-6.3,11-8.2,14.5l10.6,0.6l-9.4,20.2l94.7,0.6c10.7-0.2-3,32.2,23.4,9.9c4.4-3.7,1.3-9.9,13.7-9.9
	l0,0L477,200.8z"/>
<path d="M478.1,183.1l-5.3-5.3L458.8,191l-13.9-13.2l-13.6,13.5l-13.9-13.2l-13.9,13.2l-13.6-13.5L375.9,191l-10.7-10.1
	c-1,1.5-2.1,3.1-3.1,4.8l13.9,13.8l13.9-13.9l13.5,13.4l13.9-13.2l13.6,13.6l13.9-13.9l13.9,13.9l13.9-13.9l11.8,11.7L478.1,183.1z"
	/>
<path class="st2" d="M395.3,263.9c-0.2,12.4,0.2,25.1-13,29.2c0.8,0.1,1.6,0.2,2.4,0.3c0.7,0.1,1.4,0,2.1-0.2
	c0.6-0.2,1.2-0.3,1.8-0.5c0.9-0.3,1.7-0.5,2.4-0.8c0.5-0.2,1-0.4,1.5-0.6c0.3-0.2,0.6-0.3,0.9-0.5c0.3-0.2,0.6-0.3,0.9-0.5
	c0.4-0.3,0.9-0.5,1.2-0.8c0.3-0.2,0.5-0.4,0.7-0.5c0.5-0.4,1.1-0.9,1.5-1.3c0.5-0.5,1-1,1.4-1.5c0.2-0.2,0.3-0.4,0.5-0.6
	c0.2-0.3,0.4-0.5,0.5-0.8c0.3-0.5,0.6-1.1,0.9-1.6c0.2-0.3,0.3-0.6,0.4-0.9c0.1-0.2,0.2-0.3,0.2-0.5c0.1-0.2,0.2-0.5,0.3-0.7
	c0.1-0.1,0.1-0.2,0.1-0.4c0.2-0.5,0.3-1,0.4-1.4c0-0.1,0.1-0.2,0.1-0.3c0.1-0.3,0.2-0.6,0.2-1c0-0.1,0.1-0.2,0.1-0.2
	c0.1-0.4,0.2-0.7,0.2-1.1c0.1-0.2,0.1-0.4,0.1-0.6c0.1-0.2,0.1-0.5,0.1-0.7c0.2-1.1,0.3-2.1,0.3-3.2c0.1-1.3,0.2-2.7,0.2-4
	c0.1-1.4,0.1-2.9,0.1-4.3L395.3,263.9z"/>
<path class="st0" d="M364.1,263.8c-0.1,3.6,0.2,6.8,0.6,9.7c0.2,1.1,0.4,2.2,0.6,3.2c0.2,0.7,0.4,1.3,0.5,2
	c2.7,8.6,8.3,13.2,16.3,14.4c13.2-4.1,12.8-16.8,13-29.2H364.1z"/>
<path class="st4" d="M392.5,242.2h6.7l-5.8-20.9l-32.2-0.2l-7.8,21.7l8.2,0.6l-8.2,20.3l1.3,1.2c8.2,1.9,9.3,17.2,16.2,2.7
	c1-2.2,3.2-3.6,5.6-3.6l23.1-0.1L392.5,242.2z"/>
<path class="st1" d="M500.6,138.3l-7.7-21.5h-14.8l6.3,21.5h-9.2l8,20.9h16l-9.8-20.9H500.6z"/>
<path class="st5" d="M475.3,138.3h9.1l-6.3-21.5h-59.7l-9,21.5h9.1l-8.6,20.8h0.1v0.1c0.2,0,0.4,0,0.6,0h10.5
	c9.9,1.9,11.5,15.2,14.4,14.6c5.1-1.1,6.4-29.1,17.9-16.1c1,1.2,2.6,1.7,4.1,1.5l0,0h19.6h6.2L475.3,138.3z"/>
<path class="st1" d="M475.8,68.1c23.5-32.6,35.1-48.7,25.8-56.6c-6.1-5.2-14.4-1.5-27.8,8.5c-0.5,10.7-3.1,25.9-6.5,46.1L475.8,68.1
	z"/>
<path class="st5" d="M466,0.9c-12.6-3.1-20,17.1-38.3,56.6l39.6,8.8c3.4-20.2,6-35.4,6.5-46.1C474.2,8.7,472.2,2.4,466,0.9z"/>
<path class="st7" d="M427.6,57.4C427.6,57.6,427.6,57.4,427.6,57.4l-17.6,35l9.7,0.2l-11.7,24.1l9.9,0.9c2.3,0.2,5.2,2.6,6.7,4
	c0.9,0.9,2.1,1.3,3.4,1.1c3.6-0.5,0.8-5.7,18.8-6l0,0h45.9l-11-4.6c-1.6-0.7-2.7-2-2.2-2.9c0.1-0.1,0.1-0.2,0.2-0.2
	c0.5-0.7,2-0.9,3.5-0.2l0.5,0.2l7.7,3.2l6.7,2.8v-42L427.6,57.4z"/>
<path class="st8" d="M470.3,97.4c5.3,0,9.7-4.3,9.7-9.7c0-5.3-4.3-9.7-9.7-9.7c-5.3,0-9.7,4.3-9.7,9.7S465,97.4,470.3,97.4z
	 M470.3,82.8c2.7,0,4.8,2.2,4.8,4.8s-2.2,4.8-4.8,4.8s-4.8-2.2-4.8-4.8S467.6,82.8,470.3,82.8z"/>
<path d="M470.6,92.5c2.7-0.2,4.7-2.5,4.5-5.1c-0.2-2.7-2.5-4.7-5.1-4.5c-2.7,0.2-4.7,2.5-4.5,5.1C465.6,90.7,467.9,92.7,470.6,92.5z
	"/>
<path d="M498,116.8v-1.7l-14.3-6.1l-0.5-0.2c-1.5-0.6-3-0.5-3.5,0.2c-0.1,0.1-0.1,0.2-0.2,0.2c-0.4,0.9,0.6,2.2,2.2,2.9l11,4.6h0.2
	L498,116.8z"/>
<path class="st3" d="M529.5,95.5c-3.2,8-13.7,14.5-31.6,16.1v3.5v1.7c1.2-0.1,2.3-0.2,3.5-0.2c1.4-0.1,2.7-0.3,4-0.5
	c1.2-0.2,2.3-0.4,3.4-0.6c4.8-1,8.8-2.5,12-4.4c0.7-0.4,1.4-0.9,2-1.3c0.3-0.2,0.6-0.4,0.9-0.7c0.9-0.7,1.6-1.4,2.3-2.2
	c0.5-0.5,0.9-1,1.2-1.5c0.9-1.3,1.6-2.7,2-4.1C529.8,99.5,529.9,97.5,529.5,95.5z"/>
<path class="st4" d="M501.8,74.1c-1.2-0.3-2.5-0.7-3.8-1V84v10.9v16.7c17.9-1.6,28.4-8.1,31.6-16.1C528,87.3,518.7,78.8,501.8,74.1z
	"/>
</svg>
